<svg xmlns="http://www.w3.org/2000/svg" viewBox="0 0 704.79 108.4"><defs><style>.cls-1{fill:#d9ebda;}</style></defs><g id="Calque_2" data-name="Calque 2"><g id="Calque_1-2" data-name="Calque 1"><path class="cls-1" d="M43,106.08Q38.81,103.76,38.8,98a21.91,21.91,0,0,1,1.83-8.15,17.55,17.55,0,0,0,4.71,3.94,10.1,10.1,0,0,0,4.71,1.12q7,0,10.48-7.87A43.15,43.15,0,0,0,64,69.59q0-17.85-13.36-17.85a42.34,42.34,0,0,0-6.46.42L32.62,106H12.37L31.49,16.59,52.3,13.78,45.69,45h.85a16.45,16.45,0,0,0,10-3.44A26,26,0,0,0,64,32.83a22.42,22.42,0,0,0,2.81-10.62,14.32,14.32,0,0,0-4.57-10.82Q57.65,7,48.22,7A38.65,38.65,0,0,0,31.49,10.9,32.35,32.35,0,0,0,18.21,22.5q-5.15,7.72-5.13,18.69c0,3.47.32,5.89,1,7.24a12.77,12.77,0,0,1,1,2.32q-7.45,0-11.24-3T0,37.82q0-9.55,7.17-18.14a51.85,51.85,0,0,1,19-13.85A60.45,60.45,0,0,1,51,.56q9.84,0,16.59,3.1a23.08,23.08,0,0,1,10.05,8.15A19.92,19.92,0,0,1,81,22.92a23.92,23.92,0,0,1-3.65,12.51,27.76,27.76,0,0,1-10.41,9.84q8.44,1.54,12.52,7.8a26.66,26.66,0,0,1,4.07,14.84,57.49,57.49,0,0,1-3,17.43,39.18,39.18,0,0,1-10,16.24q-7,6.81-17.79,6.82A19.77,19.77,0,0,1,43,106.08Z"/><path class="cls-1" d="M98,35.71h20.25l-1.83,8.72A56.58,56.58,0,0,1,125.06,38a16.31,16.31,0,0,1,8.36-2.25,8.78,8.78,0,0,1,7.1,3.09,11.19,11.19,0,0,1,2.6,7.46,10.63,10.63,0,0,1-2.67,7.17A9.32,9.32,0,0,1,133,56.52c-2.06,0-3.44-.49-4.15-1.48a11.16,11.16,0,0,1-1.61-4.29,13.16,13.16,0,0,0-.85-2.67,1.56,1.56,0,0,0-1.54-.84,9.75,9.75,0,0,0-5,1.19,34.61,34.61,0,0,0-5.28,4.15L103.34,106H83.09Z"/><path class="cls-1" d="M144.32,102.63q-4.15-4.22-4.15-12.65a49.57,49.57,0,0,1,1.12-9.14l9.57-45.13H171.1L161,83.51a17.23,17.23,0,0,0-.56,4.5c0,1.88.44,3.21,1.33,4s2.37,1.19,4.43,1.19a10.67,10.67,0,0,0,7.59-3.44,19.71,19.71,0,0,0,5.06-8.93h5.91q-5.2,15.18-13.36,20.6t-16.17,5.41A14.55,14.55,0,0,1,144.32,102.63ZM156.9,24.89A10.72,10.72,0,0,1,153.67,17a10.92,10.92,0,0,1,3.23-7.94,10.62,10.62,0,0,1,7.87-3.31,10.86,10.86,0,0,1,7.95,3.31A10.83,10.83,0,0,1,176,17a10.63,10.63,0,0,1-3.3,7.88,11,11,0,0,1-7.95,3.23A10.74,10.74,0,0,1,156.9,24.89Z"/><path class="cls-1" d="M182.35,101.37Q177,95.88,177,84.22a64.35,64.35,0,0,1,4.14-21.87A50.43,50.43,0,0,1,193.53,43,27.27,27.27,0,0,1,213.14,35c3.84,0,6.7.65,8.57,2a6.05,6.05,0,0,1,2.82,5.2v1l1.54-7.45h20.25L236.2,83.51a17.23,17.23,0,0,0-.57,4.5q0,6,5.77,6a8.51,8.51,0,0,0,6.82-3.66,27.55,27.55,0,0,0,4.57-9.56h5.9q-5.2,15.18-12.86,20.6t-15.4,5.41a13.47,13.47,0,0,1-9.49-3.3c-2.39-2.2-3.82-5.42-4.29-9.63a39.3,39.3,0,0,1-9.07,9.35,19.79,19.79,0,0,1-11.88,3.58A17.89,17.89,0,0,1,182.35,101.37ZM211.8,89.91a17.26,17.26,0,0,0,4.71-9.07l6.75-31.77a5.77,5.77,0,0,0-1.4-3.59,5.26,5.26,0,0,0-4.36-1.76q-5.62,0-10.13,6.54a51.84,51.84,0,0,0-7,15.75,62.57,62.57,0,0,0-2.53,16.24c0,4.69.68,7.68,2,9a6.93,6.93,0,0,0,5,2C207.19,93.21,209.5,92.11,211.8,89.91Z"/><path class="cls-1" d="M255.74,101.44Q250,96,250,84.5a68.39,68.39,0,0,1,3.87-21.37A50.67,50.67,0,0,1,266.21,43q8.51-8.51,21.58-8.5,8.58,0,12.09,3.65a13,13,0,0,1,3.52,9.42q0,5.07-2.18,7.59A6.72,6.72,0,0,1,296,57.64,8,8,0,0,1,291,56a23.9,23.9,0,0,0,1.68-8.3q0-5.76-3.79-5.76-4.23,0-8.44,7a67.87,67.87,0,0,0-7,16.59,62.11,62.11,0,0,0-2.74,16.66q0,11.67,8.44,11.67a19.64,19.64,0,0,0,8.5-2.32A40.7,40.7,0,0,0,296.09,86q-3.79,20.82-24.33,20.81Q261.5,106.85,255.74,101.44Z"/><path class="cls-1" d="M353.1,100.1q-6.69-6.75-6.68-21.51,0-12.51,4.5-28.12a78.41,78.41,0,0,1,13.14-26.71q8.65-11.1,20.46-11.11a21.39,21.39,0,0,1,7.31,1.13q-6.19,3.66-11.88,15a123.65,123.65,0,0,0-9.21,25.45,104.24,104.24,0,0,0-3.51,24.88q0,7.6,2,11.95t6.19,4.36q6.89,0,13.71-9.91T400.34,60.6a102.56,102.56,0,0,0,4.42-29,53.84,53.84,0,0,0-1.47-14,13.67,13.67,0,0,0-5.41-7.94Q393.94,7,386.77,7a46.13,46.13,0,0,0-20.11,4.43,36.49,36.49,0,0,0-14.83,12.65,33.25,33.25,0,0,0-5.55,19,16.13,16.13,0,0,0,.7,5.56,10.84,10.84,0,0,1,.7,2q-7,0-10.61-2.81t-3.59-9q0-9.69,7.95-18.55T362.52,6.05A70.94,70.94,0,0,1,390.14.56q17.58,0,25.45,9.56t7.87,26.43a96,96,0,0,1-5.62,31.36,69,69,0,0,1-17.36,27.62q-11.75,11.32-28.9,11.32Q359.78,106.85,353.1,100.1Z"/><path class="cls-1" d="M458.89,9.7q-9.56,3.38-14.55,10.62t-5,17.5a32.39,32.39,0,0,0,1,8.22,17.19,17.19,0,0,0,2.82,6.12q-9,0-13.29-3.73T425.57,37a32,32,0,0,1,5.77-18.35,41.21,41.21,0,0,1,15.6-13.57A46.07,46.07,0,0,1,468.31,0a28.23,28.23,0,0,1,11.11,2l16.87,75.22L512,.84h13.63L502.76,106h-19.4L467.05,36.27,451,106H437.66Z"/><path class="cls-1" d="M552.81,9.7q-9.57,3.38-14.55,10.62t-5,17.5a32,32,0,0,0,1,8.22,17,17,0,0,0,2.81,6.12q-9,0-13.28-3.73T519.49,37a32.1,32.1,0,0,1,5.76-18.35A41.24,41.24,0,0,1,540.86,5.06,46.07,46.07,0,0,1,562.23,0a28.23,28.23,0,0,1,11.1,2l16.88,75.22L606,.84h13.64L596.67,106h-19.4L561,36.27l-16,69.74H531.58Z"/><path class="cls-1" d="M634.42,100.1q-6.67-6.75-6.67-21.51,0-12.51,4.5-28.12a78.23,78.23,0,0,1,13.14-26.71q8.64-11.1,20.46-11.11a21.43,21.43,0,0,1,7.31,1.13q-6.2,3.66-11.88,15a123.65,123.65,0,0,0-9.21,25.45,103.79,103.79,0,0,0-3.52,24.88q0,7.6,2,11.95c1.31,2.91,3.38,4.36,6.19,4.36q6.88,0,13.71-9.91T681.66,60.6a102.22,102.22,0,0,0,4.43-29,53.84,53.84,0,0,0-1.47-14A13.64,13.64,0,0,0,679.2,9.7Q675.27,7,668.1,7A46.13,46.13,0,0,0,648,11.46a36.43,36.43,0,0,0-14.83,12.65,33.25,33.25,0,0,0-5.55,19,16.13,16.13,0,0,0,.7,5.56,10.84,10.84,0,0,1,.7,2q-7,0-10.61-2.81t-3.59-9q0-9.69,7.94-18.55T643.84,6.05A71,71,0,0,1,671.47.56q17.58,0,25.45,9.56t7.87,26.43a96,96,0,0,1-5.62,31.36A68.86,68.86,0,0,1,681.8,95.53q-11.73,11.32-28.89,11.32Q641.11,106.85,634.42,100.1Z"/></g></g></svg>